<?xml version="1.0" encoding="utf-8"?>
<!-- Generator: Adobe Illustrator 24.1.2, SVG Export Plug-In . SVG Version: 6.00 Build 0)  -->
<svg version="1.1" id="Vrstva_1" xmlns="http://www.w3.org/2000/svg" xmlns:xlink="http://www.w3.org/1999/xlink" x="0px" y="0px"
	 viewBox="200 200 600 800" style="enable-background:new 0 0 1012 1350;" xml:space="preserve">
<path fill="white" d="M572.27,531.53c7.82-1.5,14.97-4.54,22.36-6.69c12.19-3.54,24.15-7.8,36.51-10.81
	c4.71-1.15,6.43,0.76,7.76,4.44c2.52,6.95,3.29,14.28,3.65,21.5c1.34,27.1-1.17,53.76-12.75,78.71
	c-9.45,20.38-24.67,35.92-42.98,48.71c-21.73,15.19-45.15,27.75-66.86,42.96c-8.03,5.63-16.13,11.16-22.93,18.34
	c-4.73,5-7.63,10.48-7.27,17.79c0.81,16.3,1.08,32.63,1.56,48.94c0.18,6.25-0.43,6.87-6.68,6.89c-4.5,0.01-9.01-0.16-13.5,0.04
	c-4.34,0.19-5.67-1.96-5.16-5.83c1.98-14.83,2.87-29.78,4.58-44.61c1.25-10.82-1.81-18.65-9.59-25.59
	c-13.58-12.1-28.95-21.62-44.22-31.31c-17.49-11.09-35.28-21.69-51.54-34.66c-22.41-17.87-35.77-41.4-43.12-68.49
	c-6.45-23.75-6.65-47.86-1.15-71.93c1.27-5.54,3.94-7.16,9.25-5.97c24.03,5.38,47.14,13.83,70.61,21.06
	c1.37,0.42,3.26,2.23,4.45,0.4c1.35-2.07-1.14-3.07-2.25-4.23c-15.92-16.58-31.86-33.14-47.07-50.39c-2.63-2.98-4.1-6.32-3.99-10.29
	c0.67-25.59,2.59-51.06,8.09-76.14c1.91-8.72,5.14-10.11,13.46-6.16c15.31,7.27,29.03,17.11,43.13,26.35
	c1.11,0.73,2.21,1.46,3.29,2.23c1.06,0.77,2.2,0.97,3.19,0.1c0.79-0.71,0.57-1.68,0.36-2.74c-2.05-10.22-3.81-20.5-6.01-30.68
	c-1.32-6.11-0.45-11.18,3.76-16.12c13.91-16.34,26.77-33.62,43.57-47.28c3.35-2.72,6.85-5.26,10.27-7.88
	c3.37-2.57,6.72-2.37,10.07,0.04c22.09,15.89,40.87,34.9,55.7,57.85c5.06,7.83,1.9,15.34,0.73,22.97
	c-1.07,7.01-2.87,13.9-4.34,20.85c-0.31,1.44-0.97,3.18,0.37,4.19c1.43,1.07,2.89-0.34,4.05-1.06c12.78-7.95,25.48-16.04,38.26-24
	c3.23-2.01,6.59-3.83,10.01-5.48c4.96-2.39,7.14-1.45,9.12,3.71c2.97,7.76,4.44,15.92,5.69,24.05c2.91,18.91,4.66,37.93,4.2,57.11
	c-0.08,3.43-0.82,6.45-2.82,9.26c-10.38,14.59-20.7,29.23-31.07,43.83C573.8,527.26,572.47,528.88,572.27,531.53z M570.54,615.8
	l0.11-0.23l-0.17,0.19c0.24,0.33,0.48,0.66,0.72,0.99c0.02,0.21,0.13,0.31,0.34,0.33c0.03,0.24,0.17,0.39,0.4,0.46
	c0.3,0.29,0.61,0.57,0.91,0.86l0.04,0.06c0.21,0.26,0.41,0.52,0.61,0.78c0.42,0.43,0.84,0.85,1.26,1.28c0,0-0.05-0.05-0.05-0.05
	c0.33,0.38,0.67,0.77,1,1.15l-0.08-0.08c0.36,0.36,0.73,0.71,1.09,1.07l-0.09-0.09c0.33,0.39,0.67,0.77,1,1.16l-0.08-0.07
	c0.25,0.39,0.51,0.79,0.76,1.18l0.11,0.12c0.46,0.49,0.93,0.98,1.39,1.46c0.09,0.68,0.18,1.36,0.27,2.04
	c-7.32,1.45-14.7,0.45-22.05,0.57l0.13,0.14c-0.35-0.36-0.71-0.73-1.06-1.09l0.07,0.07c-0.3-0.39-0.6-0.78-0.9-1.18
	c-0.08,0.09-0.16,0.17-0.24,0.26c0.08-0.09,0.16-0.17,0.25-0.26c-0.23-0.32-0.45-0.63-0.68-0.95c0.01-0.29-0.14-0.43-0.43-0.43
	l-0.23-0.21c-19.34-21.7-38.68-43.4-58.01-65.1c-0.32-0.33-0.64-0.66-0.96-0.99l0.03,0.03c-0.44-1.07-0.91-0.96-1.39-0.02
	c-1.27,1.31-2.53,2.63-3.8,3.94c-1.92,1.11-1.08,2.97-1.09,4.5c-0.03,16.46,0.02,32.91,0.03,49.37c0.01,29.92-0.02,59.84,0.08,89.76
	c0,0.92-1.38,2.95,1.21,3.05c0.98-0.75,1.97-1.49,2.95-2.24c1.16-0.52,2.33-1.02,3-2.2l-0.05,0.04c0.41-0.3,0.81-0.6,1.22-0.91
	l-0.08,0.08c1.25-0.36,2.27-1.03,2.94-2.17l-0.03,0.04c0.75-0.45,1.5-0.9,2.25-1.35c0.27,0.02,0.43-0.11,0.46-0.38
	c0.49-0.38,0.97-0.76,1.46-1.14l-0.25-0.22l0.23,0.25c0.34-0.17,0.68-0.34,1.02-0.51c0.3,0.05,0.46-0.08,0.5-0.37
	c0.5-0.39,0.99-0.78,1.49-1.18l-0.05,0.05c1.22-0.4,2.24-1.08,2.99-2.13l-0.06,0.06c1.24-0.37,2.3-0.98,3.03-2.08l-0.06,0.06
	c1.25-0.34,2.32-0.95,3.06-2.06l-0.07,0.07c0.64-0.4,1.28-0.8,1.92-1.19l-0.02,0.01c0.39-0.3,0.79-0.6,1.18-0.9l-0.07,0.07
	c2.32-0.9,4.3-2.32,6.11-3.99l-0.04,0.04c0.32,0.01,0.57-0.11,0.77-0.35c15.44-9.85,31.27-19.12,46.14-29.86
	c0.38-0.26,0.75-0.53,1.13-0.79l-0.04,0.05c1.26-0.34,2.25-1.05,2.96-2.16c0,0-0.04,0.04-0.04,0.04c0.73-0.44,1.47-0.88,2.2-1.31
	c0.35,0.03,0.54-0.14,0.56-0.49c0.45-0.39,0.9-0.77,1.35-1.16l-0.2-0.17l0.17,0.2c1.15-0.47,2.21-1.07,2.87-2.19
	c0,0-0.04,0.03-0.04,0.03c0.39-0.34,0.77-0.68,1.16-1.03c0.31-0.23,0.62-0.47,0.93-0.7c0.76-0.55,1.52-1.11,2.28-1.66
	c0.25-0.02,0.37-0.15,0.36-0.4c0.22-0.05,0.36-0.17,0.43-0.39c0.38,0.03,0.59-0.15,0.63-0.52c0.43-0.45,0.86-0.9,1.28-1.35
	c3.73-2.89,6.95-6.28,9.92-9.93c1.14-0.65,1.84-1.67,2.3-2.86l-0.07,0.06c0.3-0.41,0.6-0.81,0.9-1.22l-0.06,0.06
	c2.29-1.92,3.75-4.42,4.97-7.09l-0.03,0.04c0.28-0.36,0.55-0.73,0.83-1.09c0.24-0.17,0.32-0.4,0.24-0.68
	c1.69-1.59,2.37-3.78,3.39-5.76l0.14-0.27c0.16-0.75,0.33-1.5,0.49-2.24l-0.06,0.06c0.54-0.6,1.28-1.11,1.58-1.81
	c9.79-22.79,11.61-46.65,9.83-71.08c-0.37-5.02-1.91-4.82-5.79-3.37c-14.96,5.57-30.27,10.09-45.52,14.78
	c-5.31,1.63-10.36,2-15.25-1.09c-0.29-0.2-0.59-0.4-0.88-0.6l-0.15-0.16c-0.22-0.22-0.44-0.44-0.67-0.66
	c-0.06-0.21-0.19-0.35-0.4-0.41c0.03-0.29-0.11-0.45-0.4-0.47c-0.45-0.45-0.9-0.9-1.35-1.35l0.04,0.04
	c-3.75-6.47-3.03-12.75,0.76-18.91c0.24-0.17,0.32-0.4,0.24-0.68c1.12-0.8,1.68-1.95,2-3.24l-0.03,0.04
	c0.89-0.34,1.01-1.17,1.23-1.93l-0.07,0.07c0.41-0.51,0.83-1.02,1.24-1.53c0.23-0.06,0.33-0.21,0.29-0.44
	c0.17-0.37,0.33-0.74,0.5-1.11l-0.06,0.06c1.05-0.78,1.81-1.76,2.05-3.07l-0.07,0.06c0.43-0.5,0.85-1,1.28-1.49
	c0.22-0.05,0.32-0.19,0.29-0.42c0.45-0.74,0.89-1.49,1.34-2.23c0,0-0.03,0.03-0.03,0.03c0.45-0.6,0.9-1.2,1.34-1.79l-0.05,0.05
	c0.26-0.43,0.51-0.86,0.77-1.29l-0.05,0.05c0.3-0.38,0.6-0.75,0.9-1.13c6.82-9.35,13.68-18.68,20.43-28.08
	c1.52-2.12,2.39-4.49,2.48-7.3c0.6-19.32-1.8-38.37-4.6-57.42c-0.58-3.93-1.46-4.33-4.64-2.28c-13.57,8.74-27.22,17.36-40.84,26.02
	c-5.6,2.35-11.18,3.24-16.71-0.21c-0.97-0.93-1.94-1.86-2.91-2.79c-2.89-4.91-3.67-9.89-2.31-15.66c2.12-8.98,3.67-18.12,4.86-27.27
	c0.71-5.48,3.39-11.49-1.96-16.36c0-0.23-0.11-0.37-0.35-0.4c-0.43-0.47-0.86-0.93-1.3-1.4l0.04,0.04
	c-0.74-1.57-1.63-3.03-3.11-4.04c-0.25-0.31-0.51-0.63-0.76-0.94c-0.33-0.43-0.65-0.86-0.98-1.29l0.08,0.06
	c-0.45-1.21-1.21-2.16-2.34-2.8c-0.27-0.32-0.54-0.64-0.81-0.96c-0.79-1.56-1.72-3.01-3.2-4.02c-0.6-0.66-1.2-1.32-1.8-1.98
	c-0.34-0.41-0.69-0.81-1.03-1.22c0,0,0.07,0.06,0.07,0.06c-0.55-0.73-1.1-1.45-1.65-2.18l-0.27-0.25c-0.05-0.29-0.22-0.49-0.51-0.59
	c-0.24-0.23-0.47-0.46-0.71-0.69c0,0-0.16-0.16-0.16-0.16c-0.2-0.25-0.41-0.49-0.61-0.74c-0.44-0.42-0.89-0.85-1.33-1.27
	c-1.98-1.97-3.95-3.94-5.93-5.92c-0.34-0.33-0.68-0.66-1.02-0.99c-1.04-0.98-2.08-1.96-3.11-2.94c-0.53-0.59-1.42-1.75-1.52-1.68
	c-1.41,0.92-0.56,2.38-0.56,3.57c-0.05,60.1-0.04,120.21-0.05,180.31c0,4.83-0.04,9.66-0.03,14.48c0,0.74-0.49,1.89,0.62,2.02
	c0.45,0.05,1.04-1.09,1.57-1.7c6.11-5.41,11.7-11.34,17.16-17.39c0.43-0.45,0.85-0.9,1.28-1.35l-0.06,0.09
	c0.33-0.35,0.67-0.69,1-1.04c0,0-0.01,0.01-0.01,0.01c0.25-0.43,0.49-0.87,0.74-1.3c0,0-0.06,0.06-0.06,0.06
	c0.43-0.26,0.86-0.53,1.29-0.79l-0.29-0.23c0,0,0.27,0.26,0.27,0.26c0.34-0.36,0.69-0.71,1.03-1.07c0,0-0.05,0.05-0.05,0.05
	c0.34-0.36,0.69-0.73,1.03-1.09c0,0-0.07,0.07-0.07,0.07c0.36-0.36,0.71-0.71,1.07-1.07l-0.07,0.07c0.35-0.37,0.69-0.73,1.04-1.1
	l-0.09,0.09c0.39-0.4,0.77-0.79,1.16-1.19c10.56-10.66,21.11-21.32,31.67-31.98c0.86-0.42,1.74-1.23,2.58-1.19
	c7.41,0.36,14.89-0.77,22.22,1.12c-0.59,1.84-2.23,2.79-3.47,4.06c-13.83,14.12-27.69,28.23-41.54,42.33
	c-0.41,0.43-0.81,0.87-1.22,1.3l0.09-0.1c-0.35,0.36-0.7,0.73-1.04,1.09c0,0,0.07-0.07,0.07-0.07c-0.36,0.36-0.71,0.71-1.07,1.07
	c0,0,0.07-0.07,0.07-0.07c-0.35,0.36-0.71,0.73-1.06,1.09c0,0,0.08-0.08,0.08-0.08c-0.36,0.36-0.71,0.72-1.07,1.08
	c0,0,0.08-0.08,0.08-0.08c-0.35,0.36-0.71,0.73-1.06,1.09c0,0,0.08-0.08,0.08-0.08c-0.36,0.36-0.72,0.72-1.08,1.08
	c0,0,0.08-0.08,0.08-0.08c-0.35,0.37-0.7,0.74-1.05,1.11l0.08-0.08c-0.37,0.35-0.75,0.69-1.12,1.04l0.08-0.08
	c-0.36,0.36-0.72,0.71-1.08,1.07l0.07-0.07c-0.36,0.36-0.72,0.71-1.08,1.07l0.07-0.07c-0.36,0.35-0.72,0.71-1.08,1.06
	c0,0,0.09-0.09,0.09-0.09c-0.4,0.4-0.79,0.8-1.19,1.2c-0.57,0.57-1.14,1.15-1.72,1.72c-0.39,0.41-0.78,0.82-1.16,1.23
	c0,0,0.09-0.1,0.09-0.1c-0.37,0.35-0.73,0.7-1.1,1.05l0.09-0.09c-0.39,0.4-0.77,0.79-1.16,1.19c-0.24,0.28-0.49,0.56-0.73,0.83
	c-1.79,1.16-3.21,2.37-0.73,4.26c19.8,22.39,39.6,44.78,59.4,67.17C569.81,614.94,570.18,615.37,570.54,615.8z M455.5,352.75
	l-0.25,0.28c-0.25,0.34-0.5,0.68-0.74,1.02l0.4,0.3l-0.38-0.32c-1.25,1.42-2.5,2.85-3.74,4.27c0,0,0.03-0.04,0.03-0.04
	c-0.44,0.44-0.88,0.87-1.32,1.31c-0.3,0.02-0.44,0.18-0.42,0.48c-0.51,0.74-1.03,1.48-1.54,2.23c-0.55,0.67-1.11,1.33-1.66,2
	c-1.22,0.66-1.81,1.81-2.36,2.99c-0.22,0.31-0.44,0.63-0.67,0.94c-0.33,0.38-0.67,0.76-1,1.15l0.02-0.03
	c-1.12,0.69-1.65,1.79-2.1,2.96l0.04-0.04c-3.29,3.35-4.97,7.05-4.03,12.01c1.51,7.94,2.71,15.95,3.68,23.98
	c0.94,7.76,3.6,15.68-1,23.24c-0.38,0.12-0.55,0.38-0.51,0.78c-0.18,0.06-0.3,0.19-0.36,0.37c-0.3,0-0.44,0.14-0.43,0.44
	c-0.3,0.09-0.5,0.28-0.6,0.58c-0.29,0-0.42,0.14-0.41,0.43c-0.26,0.04-0.42,0.19-0.49,0.45c-0.33-0.04-0.51,0.11-0.55,0.44
	c-3.78,2.63-8.04,3.33-12.29,1.93c-3.41-1.12-6.52-3.12-9.77-4.73l0.06,0.07c-1.43-1.39-3.14-2.29-5.01-2.93
	c-2.73-2.03-5.54-3.89-8.76-5.06c-1.47-0.91-2.94-1.82-4.41-2.73c-0.17-0.24-0.39-0.33-0.68-0.25c-1.44-0.93-2.88-1.87-4.32-2.8
	c-0.14-0.25-0.34-0.32-0.6-0.22c-0.6-0.46-1.21-0.93-1.81-1.39l-0.24-0.13c-2.08-1.18-4.15-2.36-6.23-3.55l0.07,0.07
	c-0.36-1.08-1.37-0.76-2.12-0.99l0.05,0.05c-1.08-1.81-2.71-2.62-4.85-2.8c-0.2,2-0.24,3.83-0.57,5.6
	c-2.91,15.81-5.26,31.65-4.79,47.82c0.11,3.86,0.7,7.17,3.6,9.83l0.08,0.08c0.23,0.3,0.46,0.6,0.68,0.9l0.27,0.33
	c0.47,0.48,0.94,0.96,1.41,1.44c0.89,1,1.77,2,2.66,3c0.63,0.76,1.27,1.53,1.9,2.29l0.35-0.32l-0.32,0.35
	c1.14,1.22,2.28,2.45,3.41,3.67c1.58,1.66,3.16,3.32,4.74,4.98c1.89,2.1,3.78,4.2,5.67,6.31l0.27,0.25
	c0.08,0.32,0.27,0.53,0.58,0.65c0,0.36,0.18,0.54,0.54,0.53l0.32,0.34c-0.02,0.38,0.16,0.6,0.54,0.65c0.45,0.43,0.9,0.86,1.34,1.29
	c1.93,1.99,3.87,3.98,5.8,5.97c0.36,0.4,0.71,0.79,1.07,1.19l-0.07-0.07c0.96,1.07,1.93,2.14,2.89,3.21l0.15-0.21l-0.2,0.17
	c0.57,0.68,1.14,1.37,1.7,2.05c0.03,0.24,0.16,0.35,0.4,0.34c0.05,0.27,0.2,0.44,0.47,0.51c0.02,0.41,0.23,0.62,0.63,0.63l0.25,0.26
	c0.29,0.28,0.59,0.57,0.88,0.85l0.06,0.05c0.33,0.32,0.67,0.64,1,0.96l0.03,0.06c0.2,0.27,0.41,0.54,0.61,0.8
	c0.44,0.42,0.88,0.84,1.32,1.26c0.59,0.65,1.19,1.3,1.78,1.95c0.94,1.1,1.88,2.2,2.82,3.3l0.2-0.17l-0.16,0.22
	c0.25,0.32,0.5,0.63,0.75,0.95l0.31,0.3c0.04,0.28,0.19,0.45,0.46,0.53c-0.03,0.36,0.13,0.56,0.49,0.59
	c0.45,0.43,0.9,0.86,1.35,1.29c0.58,0.66,1.16,1.33,1.74,1.99c0.5,0.75,0.99,1.5,1.49,2.25c-0.02,0.29,0.11,0.45,0.4,0.47
	c2.4,4.49,2.73,9.15,1.14,13.97c0,0,0.07-0.06,0.07-0.06c-0.64,1.06-1.28,2.12-1.92,3.19c-0.64,0.64-1.28,1.29-1.91,1.93
	c-6.5,4.67-13.57,4.5-20.88,2.5c-20.5-5.62-40.81-11.86-60.81-19.1c-5.58-2.02-5.7-1.64-6.32,4.35c-1.25,12-0.8,23.92,1.11,35.78
	c2.55,15.87,6.9,31.15,15.73,44.84l-0.04-0.04c0.14,0.34,0.28,0.67,0.41,1.01c-0.08,0.38,0.07,0.6,0.46,0.66
	c1.05,1.47,2.11,2.93,3.16,4.4l-0.07-0.07c0.42,0.62,0.85,1.24,1.27,1.86l-0.02-0.03c0.33,0.38,0.66,0.76,1,1.14
	c0.23,0.32,0.46,0.64,0.69,0.96c0.31,0.44,0.62,0.89,0.93,1.33l-0.02-0.31c0,0,0,0.32,0,0.32c0.8,0.89,1.61,1.77,2.41,2.66
	c1.26,1.33,2.51,2.65,3.77,3.98c0.38,0.38,0.76,0.77,1.13,1.15l-0.1-0.1c0.38,0.39,0.76,0.77,1.14,1.16
	c1.32,1.25,2.64,2.5,3.96,3.74c0.43,0.45,0.87,0.9,1.3,1.36c0.24,0.19,0.48,0.39,0.72,0.58l0.25,0.26
	c-0.02,0.34,0.14,0.52,0.48,0.53c1.4,1.13,2.81,2.26,4.21,3.4c0.29,0.21,0.58,0.42,0.87,0.63c0.01-0.43,0.02-0.85,0.02-1.28
	c-2.8-12.02-2.11-23.86,1.84-35.53c0.33-0.17,0.42-0.43,0.28-0.78c2.11-3.71,4.22-7.43,6.33-11.14c0.73-0.74,1.46-1.47,2.2-2.21
	c0.38-0.37,0.77-0.75,1.15-1.12l0.28-0.32c0.44-0.46,0.89-0.91,1.33-1.37c0.66-0.6,1.31-1.2,1.97-1.81
	c0.75-0.47,1.51-0.94,2.26-1.42c0.29,0.02,0.45-0.11,0.48-0.4c1.17-0.77,2.34-1.53,3.51-2.3l0.36,0.02l0.29-0.23
	c14.37-6.52,28.5-6.38,42.33,1.57l0.34,0.21c0.4,0.17,0.8,0.34,1.2,0.51l-0.06-0.06c1.36,1.04,2.72,2.09,4.07,3.13
	c1.63,1.6,3.26,3.2,4.89,4.8c0.54,0.78,1.08,1.56,1.62,2.34l0.14,0.16c1.11,1.6,2.21,3.19,3.32,4.79c-0.1,0.27-0.03,0.48,0.21,0.63
	c0.27,0.39,0.53,0.79,0.8,1.18l-0.07-0.08c0.56,1.54,1.18,3.06,1.67,4.62c6.12,19.24,5.52,37.64-6.93,54.53
	c-0.22,0.04-0.33,0.18-0.31,0.4c-0.23,0.26-0.45,0.52-0.68,0.78c0,0-0.11,0.13-0.11,0.13c-0.29,0.32-0.59,0.64-0.88,0.96l0.23,0.28
	c0,0-0.26-0.25-0.26-0.25c-0.31,0.34-0.63,0.68-0.94,1.02c0.1,0.08,0.2,0.15,0.3,0.23c-0.1-0.08-0.2-0.16-0.29-0.24
	c-0.33,0.24-0.65,0.48-0.98,0.73l-0.25,0.2c-0.49,0.48-0.98,0.95-1.48,1.43c-0.32,0.28-0.64,0.56-0.96,0.84
	c-0.43,0.31-0.85,0.61-1.28,0.92l0.23,0.14l-0.19-0.19c-0.31-0.02-0.53,0.1-0.66,0.38c-5.72,3.26-11.67,5.84-19.42,6.17
	c14.89,8.79,28.26,18.12,41.41,27.77c0.27,0.23,0.54,0.47,0.81,0.7c0.3,0.15,0.6,0.3,0.9,0.46c4.23,1.79,1.61-2.15,1.61-2.47
	c0.1-97.38,0.04-194.75-0.02-292.13c-0.01-26.4,0-52.8,0-80.16c-1.54,1.62-2.49,2.62-3.44,3.62c-3.95,3.33-7.54,7.02-10.92,10.93
	c-0.47,0.46-0.94,0.92-1.41,1.38c-0.27,0.04-0.38,0.19-0.36,0.45C455.78,352.22,455.58,352.43,455.5,352.75z M403.67,658.51
	c0.38,0.39,0.76,0.77,1.14,1.16c1.58,2.14,3.74,3.5,6.12,4.55c8.75,4.71,17.12,3.83,25.18-1.71l-0.06,0.06
	c0.43-0.21,0.85-0.42,1.28-0.63c0,0,0.13-0.08,0.13-0.08c0.52-0.47,1.04-0.95,1.55-1.42l-0.04,0.03c0.36-0.35,0.72-0.7,1.08-1.05
	c0.3-0.31,0.61-0.62,0.91-0.93c1.2-0.64,1.87-1.69,2.2-2.97l-0.07,0.07c0.57-0.21,0.86-0.57,0.68-1.2c0.12-0.28,0.19-0.57,0.2-0.88
	c7.35-9.33,6.83-30.02-1-40.28c-0.26-0.32-0.51-0.65-0.77-0.97c-0.38-1-1.01-1.78-2.03-2.19l0.06,0.07c-0.4-0.39-0.8-0.77-1.21-1.16
	c-0.29-0.23-0.59-0.47-0.88-0.7c-0.52-0.47-1.05-0.94-1.57-1.41l-0.36-0.22c-0.39-0.16-0.78-0.33-1.17-0.49l0.06,0.06
	c-0.35-1.06-1.46-0.91-2.18-1.37c-0.17-0.35-0.43-0.45-0.79-0.31c-6.81-2.73-13.64-3.53-20.51-0.24c-0.35,0.09-0.71,0.17-1.06,0.26
	c-1.34,0.77-2.68,1.54-4.03,2.31l-0.15,0.14c-0.27,0-0.42,0.13-0.47,0.39c-1.74,0.88-3,2.26-4.05,3.86c-1.3,0.69-1.75,2.02-2.4,3.19
	c-0.35,0.07-0.49,0.27-0.43,0.62c-6.49,13.45-6.86,26.71,1.29,39.69l0.18,0.21c0.04,0.3,0.2,0.5,0.48,0.62
	c-0.04,0.4,0.14,0.63,0.54,0.68c0.41,0.43,0.82,0.87,1.23,1.31l-0.06-0.06c0.35,0.37,0.7,0.74,1.05,1.11L403.67,658.51z"/>
<path class="st1" d="M470.62,710.49c0.1-2.49,0.27-4.99,0.28-7.48c0.01-119.1,0.02-238.2-0.06-357.3c0-2.16,1.58-5.22-2.06-6.35
	c0.95-1,1.9-2,3.44-3.62c0,27.36-0.01,53.76,0,80.16c0.05,97.38,0.12,194.75,0.02,292.13C472.23,708.33,474.85,712.28,470.62,710.49
	z"/>
<path class="st1" d="M422.86,550.24c-1.44,4.84-5.8,4.76-9.52,5.36c-8.34,1.35-15.88-2.39-23.53-4.57
	c-16.66-4.75-33.15-10.11-49.6-15.55c-3.14-1.04-2.91,0.55-3.29,2.36c-1.35,6.41-0.37,12.82-0.41,19.23
	c-0.05,7.68,0.72,15.07,2.27,22.49c1.96,9.37,4.61,18.46,8.82,27.16c1.78,3.68,4.52,7.33,4.08,11.89
	c-8.83-13.69-13.18-28.97-15.73-44.84c-1.91-11.86-2.36-23.78-1.11-35.78c0.62-5.98,0.74-6.36,6.32-4.35
	c20,7.23,40.3,13.48,60.81,19.1C409.29,554.74,416.36,554.91,422.86,550.24z"/>
<path class="st1" d="M613.98,610.48c-0.24-3.43,1.33-6.59,2.47-9.49c5.14-13.15,7.31-26.72,7.42-40.71
	c0.06-7.41-0.06-14.83,0.05-22.24c0.04-2.44-0.56-3.42-3.1-2.51c-7.54,2.7-14.96,5.85-22.67,7.86c-10.83,2.83-21.07,8.21-32.63,7.95
	c-2.67-0.06-5.69,0.11-6.69-3.43c4.89,3.09,9.93,2.72,15.25,1.09c15.25-4.68,30.56-9.2,45.52-14.78c3.88-1.44,5.42-1.65,5.79,3.37
	c1.78,24.43-0.04,48.29-9.83,71.08C615.26,609.37,614.51,609.88,613.98,610.48z"/>
<path class="st1" d="M491.9,339.42c-1.2,1.97-0.99,4.16-0.99,6.32c0,61.46,0,122.91,0,184.37c0,2.16-0.17,4.35,1.02,6.31
	c-0.53,0.6-1.11,1.75-1.57,1.7c-1.11-0.12-0.62-1.28-0.62-2.02c-0.01-4.83,0.03-9.66,0.03-14.48c0-60.1-0.01-120.21,0.05-180.31
	c0-1.19-0.84-2.65,0.56-3.57C490.48,337.67,491.37,338.83,491.9,339.42z"/>
<path class="st1" d="M490.83,563.2c0.02,46.4,0.05,92.79,0.08,139.19c0,2.49,0.1,4.99,0.15,7.48c-2.59-0.1-1.21-2.13-1.21-3.05
	c-0.1-29.92-0.07-59.84-0.08-89.76c0-16.46-0.06-32.91-0.03-49.37C489.75,566.17,488.91,564.31,490.83,563.2z"/>
<path class="st1" d="M379.03,412.31c-1.66-0.21-3.46-0.6-3.83,1.8c-1.39,8.94-3.86,17.88-3.8,26.81c0.07,10.1-2.75,20.46,1.33,30.41
	c0.15,0.37-0.19,0.95-0.31,1.44c-2.9-2.66-3.49-5.97-3.6-9.83c-0.47-16.17,1.88-32.01,4.79-47.82c0.33-1.77,0.37-3.6,0.57-5.6
	C376.33,409.69,377.95,410.5,379.03,412.31z"/>
<path class="st1" d="M460.71,608.47c4.2,2.97,5.06,7.75,6.1,12.2c1.88,8.09,1.99,16.6,0.63,24.53c-1.2,6.99-3.62,14.26-8.19,20.23
	c-0.86,1.13-1.45,3.37-3.79,2.18c12.45-16.89,13.05-35.28,6.93-54.53C461.89,611.53,461.27,610.01,460.71,608.47z"/>
<path class="st1" d="M522.09,433.31c-5.12-2.39-4.91-7.28-4.35-11.42c1.6-11.79,3.67-23.53,6.01-35.21
	c0.9-4.49-1.81-8.37-1.07-12.67c5.35,4.87,2.67,10.89,1.96,16.36c-1.19,9.15-2.74,18.3-4.86,27.27
	C518.42,423.42,519.2,428.4,522.09,433.31z"/>
<path class="st1" d="M439.8,372.25c-4.51,9.06-1.08,17.87,0.21,26.96c1.09,7.7,3.21,15.39,2.77,23.22c-0.19,3.32-0.3,7.28-4.33,9.04
	c4.6-7.56,1.94-15.48,1-23.24c-0.97-8.03-2.17-16.04-3.68-23.98C434.83,379.3,436.5,375.6,439.8,372.25z"/>
<path class="st1" d="M399.04,615.04c1.02,2.37-0.15,4.49-0.83,6.62c-3.13,9.8-2.38,19.41,1.31,28.88c0.53,1.36,1.58,2.59,0.8,4.19
	C392.18,641.75,392.55,628.49,399.04,615.04z"/>
<path class="st1" d="M401.92,589.28c0.91-2.63,2.87-3.35,5.49-4.08c6.27-1.73,12.71-1.54,19.02-2.49c3.8-0.57,16.39,5.36,17.81,8.14
	C430.42,582.91,416.29,582.76,401.92,589.28z"/>
<path class="st1" d="M443.97,653.49c0.5-5.07,3.05-9.61,3.13-14.91c0.11-7.45,0.44-14.77-3.33-21.54c-0.67-1.2-0.91-2.47-0.79-3.83
	C450.81,623.47,451.32,644.16,443.97,653.49z"/>
<path class="st1" d="M374.53,645.14c2.15-1.01,2.54-2.86,2.39-4.99c-0.33-4.78-0.47-9.66-0.36-14.36c0.1-4.55,0.71-9.92,4.92-13.44
	c-3.95,11.67-4.64,23.51-1.84,35.53c-0.3,0.22-0.6,0.43-0.89,0.65C377.34,647.4,375.94,646.27,374.53,645.14z"/>
<path class="st1" d="M549.95,477.52c0.06-1.7,0.82-2.87,2.59-3.04c7.41-0.7,14.74,0.51,22.09,1.16c1.16,0.1,0.79,1.14,0.12,1.81
	c-7.32-1.89-14.81-0.76-22.22-1.12C551.7,476.29,550.81,477.1,549.95,477.52z"/>
<path class="st1" d="M435.1,434.96c-0.13,3.26-2.95,4.09-5.07,4.24c-6.69,0.47-12.67-1.45-16.99-7.03c3.24,1.61,6.36,3.61,9.77,4.73
	C427.06,438.29,431.32,437.59,435.1,434.96z"/>
<path class="st1" d="M410.93,664.22c3.47-0.99,6.62,0.97,9.93,1.36c5.63,0.67,9.96-3.28,15.24-3.08
	C428.05,668.04,419.68,668.92,410.93,664.22z"/>
<path class="st1" d="M555.01,544.29c-4.71-2.18-4.46-6.66-3.9-10.44c0.45-3.05-0.36-7.62,4.66-8.47
	C551.98,531.54,551.26,537.82,555.01,544.29z"/>
<path class="st1" d="M432.14,604.51c-1.41,1.12-2.82,0.4-4.26,0.05c-4.91-1.19-9.8-1.79-14.53,0.74c-1.08,0.58-1.46-0.16-1.72-1.03
	C418.51,600.98,425.34,601.77,432.14,604.51z"/>
<path class="st1" d="M425.48,531.22c5.24,2.65,5.86,10.17,1.14,13.97C428.22,540.37,427.89,535.71,425.48,531.22z"/>
<path class="st1" d="M541.71,436.31c-4.33,5.49-12.07,5.39-16.71-0.21C530.53,439.55,536.11,438.66,541.71,436.31z"/>
<path class="st1" d="M580.1,628.42c0.56,0.89,0.42,1.78-0.67,1.78c-6.8,0.02-13.6-0.06-20.4-0.18c-0.33-0.01-0.66-0.67-0.98-1.03
	C565.4,628.87,572.78,629.87,580.1,628.42z"/>
<path class="st1" d="M381.77,611.57c-0.15-5,1.71-8.85,6.33-11.14C385.98,604.14,383.88,607.86,381.77,611.57z"/>
<path class="st1" d="M387.6,489.5c3.33,0.81,5.96,2.24,5.67,6.31C391.39,493.71,389.5,491.61,387.6,489.5z"/>
<path class="st1" d="M604.01,627.52c0.47-3.2,1.77-5.81,4.97-7.09C607.76,623.09,606.3,625.6,604.01,627.52z"/>
<path class="st1" d="M387.27,416.72c-3.08,0.58-5.36-0.24-6.23-3.55C383.11,414.36,385.19,415.54,387.27,416.72z"/>
<path class="st1" d="M413.11,432.23c-2.17-0.13-4.77,0.5-5.01-2.93C409.97,429.94,411.68,430.85,413.11,432.23z"/>
<path class="st1" d="M456.45,601.95c4.38-0.67,3.23,2.49,3.32,4.79C458.67,605.14,457.56,603.55,456.45,601.95z"/>
<path class="st1" d="M454.51,354.03c0.32,2.8-0.59,4.51-3.74,4.27C452.02,356.88,453.27,355.45,454.51,354.03z"/>
<path class="st1" d="M610.01,618.69c-0.18-2.69,0.52-4.86,3.39-5.76C612.38,614.91,611.7,617.1,610.01,618.69z"/>
<path class="st1" d="M520.05,689.57c1.09-2.78,3.22-3.96,6.11-3.99C524.34,687.25,522.36,688.67,520.05,689.57z"/>
<path class="st1" d="M352.52,620.23c3.3-0.15,2.93,2.34,3.16,4.4C354.63,623.16,353.57,621.69,352.52,620.23z"/>
<path class="st1" d="M415.63,519.49c2.19,0.04,3.41,0.89,2.82,3.3C417.51,521.69,416.57,520.59,415.63,519.49z"/>
<path class="st1" d="M521.08,372.26c-2.63-0.12-2.86-2.09-3.11-4.04C519.45,369.23,520.34,370.69,521.08,372.26z"/>
<path class="st1" d="M379.45,480.85c2.52-0.06,3.66,1.16,3.41,3.68C381.72,483.3,380.59,482.07,379.45,480.85z"/>
<path class="st1" d="M513.15,362.3c-2.61-0.11-2.92-2.05-3.2-4.02C511.43,359.3,512.36,360.75,513.15,362.3z"/>
<path class="st1" d="M445.73,591.52c2.07,0.11,3.95,0.48,4.07,3.13C448.44,593.6,447.08,592.56,445.73,591.52z"/>
<path class="st1" d="M399.33,424.24c-2.2,0.27-4.07,0-4.41-2.73C396.39,422.42,397.86,423.33,399.33,424.24z"/>
<path class="st1" d="M394.25,421.27c-2.21,0.25-4.03-0.1-4.32-2.8C391.37,419.4,392.81,420.33,394.25,421.27z"/>
<path class="st1" d="M510.79,543.08c0.03,1.47,0.49,3.01-0.73,4.26C507.57,545.45,509,544.23,510.79,543.08z"/>
<path class="st1" d="M403.66,506.6c2.32-0.15,2.73,1.42,2.89,3.21C405.59,508.74,404.62,507.67,403.66,506.6z"/>
<path class="st1" d="M397.76,591.79c-0.27-2.96,1.89-2.21,3.51-2.3C400.1,590.26,398.93,591.02,397.76,591.79z"/>
<path class="st1" d="M556.02,524.69c-0.12-1.57-0.22-3.12,2-3.24C557.69,522.75,557.13,523.89,556.02,524.69z"/>
<path class="st1" d="M410.57,604.52c-0.37,2.47-1.98,2.76-4.03,2.31C407.88,606.06,409.22,605.29,410.57,604.52z"/>
<path class="st1" d="M426.69,545.12c0.26,1.6,0.27,3.06-1.92,3.19C425.41,547.25,426.05,546.19,426.69,545.12z"/>
<path class="st1" d="M401.87,611.22c-0.35,1.4,0.1,3.4-2.4,3.19C400.12,613.24,400.57,611.91,401.87,611.22z"/>
<path class="st1" d="M581.11,649.61c-0.2-2.24,1.31-2.25,2.87-2.19C583.33,648.54,582.27,649.14,581.11,649.61z"/>
<path class="st1" d="M494.02,707.63c-0.06-2.18,1.38-2.32,3-2.2C496.35,706.61,495.18,707.11,494.02,707.63z"/>
<path class="st1" d="M441.86,369.33c0.07,1.53,0.02,2.98-2.1,2.96C440.2,371.12,440.74,370.02,441.86,369.33z"/>
<path class="st1" d="M359.46,629.83c1.93-0.14,2.34,1.11,2.41,2.66C361.07,631.6,360.26,630.71,359.46,629.83z"/>
<path class="st1" d="M561.11,516.61c-0.23-1.63,0.39-2.7,2.05-3.07C562.91,514.85,562.15,515.83,561.11,516.61z"/>
<path class="st1" d="M586.03,645.73c0.02-1.57,0.58-2.4,2.28-1.66C587.55,644.62,586.79,645.18,586.03,645.73z"/>
<path class="st1" d="M577.03,652.54c0.08-1.53,0.65-2.24,2.2-1.31C578.5,651.67,577.77,652.1,577.03,652.54z"/>
<path class="st1" d="M508.13,697.66c0.26-1.74,1.36-2.3,2.99-2.13C510.37,696.58,509.35,697.26,508.13,697.66z"/>
<path class="st1" d="M445.86,364.28c0,1.62-0.68,2.7-2.36,2.99C444.05,366.09,444.64,364.93,445.86,364.28z"/>
<path class="st1" d="M516.31,366.06c-1.82-0.06-2.32-1.24-2.34-2.8C515.1,363.9,515.85,364.85,516.31,366.06z"/>
<path class="st1" d="M498.12,704.64c0.27-1.69,1.36-2.27,2.94-2.17C500.39,703.61,499.37,704.29,498.12,704.64z"/>
<path class="st1" d="M501.03,702.5c0.1-1.55,0.72-2.2,2.25-1.35C502.53,701.61,501.78,702.06,501.03,702.5z"/>
<path class="st1" d="M511.06,695.59c0.36-1.64,1.44-2.24,3.03-2.08C513.37,694.61,512.3,695.22,511.06,695.59z"/>
<path class="st1" d="M395.02,593.61c0.1-1.51,0.66-2.3,2.26-1.42C396.53,592.67,395.78,593.14,395.02,593.61z"/>
<path class="st1" d="M574.12,654.66c0.26-1.72,1.36-2.28,2.96-2.16C576.37,653.61,575.38,654.32,574.12,654.66z"/>
<path class="st1" d="M514.04,693.57c0.4-1.61,1.47-2.22,3.06-2.06C516.36,692.61,515.29,693.23,514.04,693.57z"/>
<path class="st1" d="M600.94,631.48c0.02-1.56,0.56-2.69,2.3-2.86C602.78,629.81,602.08,630.82,600.94,631.48z"/>
<path class="st1" d="M442.21,612.24c-1.5,0.03-2.24-0.64-2.03-2.19C441.2,610.47,441.83,611.24,442.21,612.24z"/>
<path class="st1" d="M454.69,599.45c1.55,0.08,2.23,0.77,1.62,2.34C455.77,601.01,455.23,600.23,454.69,599.45z"/>
<path class="st1" d="M507.2,355.15c-1.64,0.1-2.28-0.56-1.65-2.18C506.1,353.69,506.65,354.42,507.2,355.15z"/>
<path class="st1" d="M377.52,478.53c1.58-0.02,2.39,0.59,1.9,2.29C378.79,480.06,378.15,479.29,377.52,478.53z"/>
<path class="st1" d="M440.97,658.47c-0.01-1.54,0.59-2.63,2.2-2.97C442.83,656.79,442.17,657.83,440.97,658.47z"/>
<path class="st1" d="M578.44,624.92c1.21-0.22,2.13-0.16,1.39,1.46C579.36,625.89,578.9,625.4,578.44,624.92z"/>
<path class="st1" d="M449.06,360.05c0.6,1.51-0.39,1.93-1.54,2.23C448.04,361.53,448.55,360.79,449.06,360.05z"/>
<path class="st1" d="M435.11,606.19c-0.93-0.14-2.55,0.84-2.18-1.37C433.65,605.28,434.76,605.13,435.11,606.19z"/>
<path class="st1" d="M423.6,528.49c1.15,0.32,2.08,0.78,1.49,2.25C424.59,529.99,424.09,529.24,423.6,528.49z"/>
<path class="st1" d="M406.5,509.77c1.36,0.02,2.13,0.54,1.7,2.05C407.64,511.13,407.07,510.45,406.5,509.77z"/>
<path class="st1" d="M564.67,511.69c-0.84-1.52-0.13-2.1,1.34-2.23C565.56,510.2,565.11,510.94,564.67,511.69z"/>
<path class="st1" d="M567.99,506.5c0.2-0.46-0.62-1.73,0.9-1.13C568.59,505.75,568.29,506.13,567.99,506.5z"/>
<path class="st1" d="M565.98,509.49c0.01-0.93,0.22-1.7,1.34-1.79C566.87,508.29,566.42,508.89,565.98,509.49z"/>
<path class="st1" d="M563.09,513.6c-0.03-0.89-0.01-1.74,1.28-1.49C563.95,512.61,563.52,513.1,563.09,513.6z"/>
<path class="st1" d="M412.53,516.28c1.2-0.38,1.22,0.48,1.32,1.26C413.41,517.12,412.97,516.7,412.53,516.28z"/>
<path class="st1" d="M559.14,519.64c-0.06-0.9-0.08-1.75,1.24-1.53C559.97,518.61,559.55,519.12,559.14,519.64z"/>
<path class="st1" d="M557.98,521.5c-0.01-0.91,0.19-1.69,1.23-1.93C558.99,520.33,558.87,521.16,557.98,521.5z"/>
<path class="st1" d="M420.51,525.21c1.18-0.33,1.25,0.49,1.35,1.29C421.41,526.07,420.96,525.64,420.51,525.21z"/>
<path class="st1" d="M556.33,545.6c-1.18,0.28-1.28-0.52-1.35-1.35C555.43,544.7,555.88,545.15,556.33,545.6z"/>
<path class="st1" d="M496.95,560.25c-1.53,0.84-0.76-0.55-0.96-0.99C496.31,559.58,496.63,559.91,496.95,560.25z"/>
<path class="st1" d="M391.72,596.79c-0.3-1.18,0.51-1.28,1.33-1.37C392.61,595.87,392.17,596.33,391.72,596.79z"/>
<path class="st1" d="M438.16,608.26c-0.91-0.04-1.78-0.13-1.57-1.41C437.11,607.32,437.64,607.79,438.16,608.26z"/>
<path class="st1" d="M613.54,612.66c-0.51-0.9-0.5-1.68,0.49-2.24C613.87,611.17,613.7,611.91,613.54,612.66z"/>
<path class="st1" d="M573.51,619.24c1.21-0.35,1.2,0.49,1.26,1.28C574.35,620.09,573.93,619.66,573.51,619.24z"/>
<path class="st1" d="M437.46,661.84c-0.13-1.18,0.65-1.37,1.55-1.42C438.49,660.9,437.98,661.37,437.46,661.84z"/>
<path class="st1" d="M355.61,624.56c0.99,0.23,1.24,0.97,1.27,1.86C356.46,625.8,356.04,625.18,355.61,624.56z"/>
<path class="st1" d="M589.74,642.76c-0.34-1.18,0.49-1.25,1.28-1.35C590.59,641.86,590.17,642.31,589.74,642.76z"/>
<path class="st1" d="M371.77,642.42c0.81,0.09,1.65,0.15,1.3,1.36C372.64,643.32,372.21,642.87,371.77,642.42z"/>
<path class="st1" d="M579.8,650.74c-0.32-1.28,0.56-1.16,1.35-1.16C580.69,649.97,580.24,650.36,579.8,650.74z"/>
<path class="st1" d="M573.03,655.41c-0.08-0.26-0.15-0.52-0.23-0.79c0.45,0,0.91,0,1.36-0.01
	C573.78,654.88,573.41,655.14,573.03,655.41z"/>
<path class="st1" d="M401.54,656.23c1.23-0.34,1.19,0.52,1.23,1.31C402.36,657.1,401.95,656.67,401.54,656.23z"/>
<path class="st1" d="M451.26,671.86c0.19,1.18-0.6,1.35-1.48,1.43C450.28,672.81,450.77,672.34,451.26,671.86z"/>
<path class="st1" d="M517.03,691.58c0.31-0.93,1.05-1.17,1.92-1.19C518.31,690.78,517.67,691.18,517.03,691.58z"/>
<path class="st1" d="M506.7,698.79c-0.22-1.29,0.64-1.23,1.49-1.18C507.69,698,507.19,698.39,506.7,698.79z"/>
<path class="st1" d="M503.74,700.78c-0.24-1.32,0.63-1.2,1.46-1.14C504.71,700.02,504.23,700.4,503.74,700.78z"/>
<path class="st1" d="M496.03,343.35c-0.45-0.22-1.85,0.53-1.02-0.99C495.35,342.69,495.69,343.02,496.03,343.35z"/>
<path class="st1" d="M503.29,350.54c-1.18,0.35-1.23-0.48-1.33-1.27C502.4,349.69,502.85,350.11,503.29,350.54z"/>
<path class="st1" d="M457.86,350.28c-0.09,0.85-0.23,1.66-1.41,1.38C456.92,351.2,457.39,350.74,457.86,350.28z"/>
<path class="st1" d="M450.8,358.26c-0.06,0.82-0.11,1.64-1.32,1.31C449.93,359.13,450.37,358.7,450.8,358.26z"/>
<path class="st1" d="M522.34,373.62c-1.21,0.26-1.27-0.56-1.3-1.4C521.47,372.69,521.91,373.16,522.34,373.62z"/>
<path class="st1" d="M381.1,413.25c-0.9,0.08-1.69-0.07-2.12-0.99C379.74,412.49,380.75,412.16,381.1,413.25z"/>
<path class="st1" d="M389.32,418.25c-0.97,0.01-1.88-0.06-1.81-1.39C388.11,417.32,388.72,417.78,389.32,418.25z"/>
<path class="st1" d="M373.46,474.09c1.19-0.22,1.33,0.58,1.41,1.44C374.4,475.05,373.93,474.57,373.46,474.09z"/>
<path class="st1" d="M395.52,498.23c1.18-0.34,1.25,0.49,1.35,1.29C396.42,499.08,395.97,498.66,395.52,498.23z"/>
<path class="st1" d="M555.2,625.55c-0.11,0.08-0.21,0.17-0.33,0.23c-0.03,0.01-0.11-0.1-0.17-0.15c0.09-0.1,0.18-0.19,0.27-0.29
	C554.97,625.34,555.2,625.55,555.2,625.55z"/>
<path class="st1" d="M356.87,626.39c0.33,0.38,0.66,0.76,1,1.14C357.53,627.15,357.2,626.77,356.87,626.39z"/>
<path class="st1" d="M459.99,607.37c0.27,0.39,0.53,0.79,0.8,1.18C460.52,608.15,460.25,607.76,459.99,607.37z"/>
<path class="st1" d="M402.71,657.48c0.35,0.37,0.7,0.74,1.05,1.11C403.41,658.22,403.06,657.85,402.71,657.48z"/>
<path class="st1" d="M403.67,658.51c0.38,0.39,0.76,0.77,1.14,1.16C404.43,659.28,404.05,658.89,403.67,658.51z"/>
<path class="st1" d="M438.97,660.45c0.36-0.35,0.72-0.7,1.08-1.05C439.7,659.75,439.34,660.1,438.97,660.45z"/>
<path class="st1" d="M575.64,621.54c0.36,0.36,0.73,0.71,1.09,1.07C576.37,622.25,576,621.89,575.64,621.54z"/>
<path class="st1" d="M436.05,662.56c0.25-0.57,0.66-0.8,1.28-0.63C436.9,662.14,436.47,662.35,436.05,662.56z"/>
<path class="st1" d="M406.39,606.97c0.12,0.46,0.22,0.9-0.47,0.39C405.97,607.1,406.12,606.97,406.39,606.97z"/>
<path class="st1" d="M455.14,668.02c0.24,0.67-0.06,0.86-0.68,0.78C454.69,668.54,454.91,668.28,455.14,668.02z"/>
<path class="st1" d="M454.35,668.93c0.08,0.67-0.23,0.97-0.88,0.96C453.76,669.57,454.05,669.25,454.35,668.93z"/>
<path class="st1" d="M453.42,669.92c0.04,0.67-0.28,1-0.94,1.02C452.8,670.6,453.11,670.26,453.42,669.92z"/>
<path class="st1" d="M452.49,670.93c-0.03,0.63-0.33,0.91-0.97,0.73C451.84,671.42,452.16,671.18,452.49,670.93z"/>
<path class="st1" d="M556.3,626.93c-0.62-0.04-0.89-0.32-0.68-0.95C555.85,626.3,556.08,626.62,556.3,626.93z"/>
<path class="st1" d="M448.82,674.13c-0.43,0.31-0.85,0.61-1.28,0.92C447.97,674.74,448.4,674.44,448.82,674.13z"/>
<path class="st1" d="M447.58,675c0.02,0.54-0.08,0.89-0.66,0.38C447.05,675.11,447.27,674.98,447.58,675z"/>
<path class="st1" d="M526.12,685.62c0.06-0.56,0.24-0.83,0.77-0.35C526.69,685.51,526.43,685.63,526.12,685.62z"/>
<path class="st1" d="M436.22,606.62c-0.57,0.25-0.94,0.04-1.17-0.49C435.44,606.29,435.83,606.46,436.22,606.62z"/>
<path class="st1" d="M518.93,690.39c0.39-0.3,0.79-0.6,1.18-0.9C519.72,689.79,519.33,690.09,518.93,690.39z"/>
<path class="st1" d="M557.2,628.11c-0.62-0.14-0.93-0.53-0.9-1.17C556.6,627.33,556.9,627.72,557.2,628.11z"/>
<path class="st1" d="M390.29,598.22c-0.01-0.78,0.26-1.27,1.15-1.12C391.06,597.47,390.68,597.85,390.29,598.22z"/>
<path class="st1" d="M444.59,591.07c0.57-0.24,0.95-0.02,1.2,0.51C445.39,591.41,444.99,591.24,444.59,591.07z"/>
<path class="st1" d="M496.02,559.28c-0.46-0.01-0.92-0.02-1.39-0.02C495.11,558.33,495.58,558.21,496.02,559.28z"/>
<path class="st1" d="M603.17,628.68c0.3-0.41,0.6-0.81,0.9-1.22C603.77,627.86,603.47,628.27,603.17,628.68z"/>
<path class="st1" d="M505.17,699.67c0.13-0.59,0.42-0.84,1.02-0.51C505.85,699.33,505.51,699.5,505.17,699.67z"/>
<path class="st1" d="M358.55,628.5c0.64,0.21,0.97,0.64,0.93,1.33C359.17,629.38,358.86,628.94,358.55,628.5z"/>
<polygon class="st1" points="557.95,547.3 557.68,547.47 557.8,547.14 "/>
<path class="st1" d="M557.13,546.48c-0.56,0.28-0.68,0.13-0.4-0.41C556.94,546.14,557.07,546.27,557.13,546.48z"/>
<path class="st1" d="M496.97,705.47c0.41-0.3,0.81-0.6,1.22-0.91C497.79,704.86,497.38,705.17,496.97,705.47z"/>
<path class="st1" d="M512.68,541.05c-0.39,0.4-0.77,0.79-1.16,1.19C511.9,541.85,512.29,541.45,512.68,541.05z"/>
<path class="st1" d="M468.91,709.33c1.04-0.65,0.82,0.15,0.81,0.7C469.45,709.8,469.18,709.56,468.91,709.33z"/>
<path class="st1" d="M513.68,540.09c-0.37,0.35-0.73,0.7-1.1,1.05C512.95,540.79,513.32,540.44,513.68,540.09z"/>
<path class="st1" d="M514.75,538.96c-0.39,0.41-0.78,0.82-1.16,1.23C513.98,539.78,514.37,539.37,514.75,538.96z"/>
<path class="st1" d="M517.66,536.04c-0.4,0.4-0.79,0.8-1.19,1.2C516.87,536.84,517.27,536.44,517.66,536.04z"/>
<path class="st1" d="M518.66,535.07c-0.36,0.35-0.72,0.71-1.08,1.06C517.93,535.77,518.3,535.42,518.66,535.07z"/>
<path class="st1" d="M519.66,534.07c-0.36,0.36-0.72,0.71-1.08,1.07C518.94,534.78,519.3,534.43,519.66,534.07z"/>
<path class="st1" d="M520.67,533.07c-0.36,0.36-0.72,0.71-1.08,1.07C519.95,533.79,520.31,533.43,520.67,533.07z"/>
<path class="st1" d="M521.71,532.11c-0.37,0.35-0.75,0.69-1.12,1.04C520.97,532.8,521.34,532.46,521.71,532.11z"/>
<path class="st1" d="M522.68,531.08c-0.35,0.37-0.7,0.74-1.05,1.11C521.98,531.82,522.33,531.45,522.68,531.08z"/>
<path class="st1" d="M523.68,530.08c-0.36,0.36-0.72,0.72-1.08,1.08C522.96,530.8,523.32,530.44,523.68,530.08z"/>
<path class="st1" d="M524.66,529.07c-0.35,0.36-0.71,0.73-1.06,1.09C523.95,529.8,524.31,529.44,524.66,529.07z"/>
<path class="st1" d="M525.66,528.07c-0.36,0.36-0.71,0.72-1.07,1.08C524.94,528.79,525.3,528.43,525.66,528.07z"/>
<path class="st1" d="M526.64,527.06c-0.35,0.36-0.71,0.73-1.06,1.09C525.93,527.78,526.29,527.42,526.64,527.06z"/>
<path class="st1" d="M527.64,526.06c-0.36,0.36-0.71,0.71-1.07,1.07C526.93,526.77,527.28,526.41,527.64,526.06z"/>
<path class="st1" d="M528.61,525.04c-0.35,0.36-0.7,0.73-1.04,1.09C527.92,525.76,528.27,525.4,528.61,525.04z"/>
<path class="st1" d="M529.74,523.84c-0.41,0.43-0.81,0.87-1.22,1.3C528.93,524.71,529.33,524.27,529.74,523.84z"/>
<path class="st1" d="M419.56,524.08c0.53-0.15,0.81-0.08,0.46,0.53C419.75,524.54,419.6,524.36,419.56,524.08z"/>
<path class="st1" d="M418.5,522.83c0.64,0.01,0.92,0.3,0.75,0.95C419,523.46,418.75,523.15,418.5,522.83z"/>
<path class="st1" d="M509.09,519.03c0.12-0.74,0.51-1.22,1.28-1.35C509.94,518.13,509.51,518.58,509.09,519.03z"/>
<path class="st1" d="M558.19,629.13c-0.35-0.36-0.71-0.73-1.06-1.09C557.48,628.4,557.83,628.76,558.19,629.13z"/>
<path class="st1" d="M560.67,517.66c-0.31-0.58-0.07-0.92,0.5-1.11C561,516.92,560.84,517.29,560.67,517.66z"/>
<path class="st1" d="M510.3,517.77c0.01-0.65,0.35-0.99,1-1.04C510.97,517.08,510.64,517.42,510.3,517.77z"/>
<path class="st1" d="M608.95,620.46c0.28-0.36,0.55-0.73,0.83-1.09C609.5,619.73,609.23,620.1,608.95,620.46z"/>
<path class="st1" d="M511.29,516.74c0.25-0.43,0.49-0.87,0.74-1.3C511.79,515.87,511.54,516.31,511.29,516.74z"/>
<path class="st1" d="M511.97,515.5c0.43-0.26,0.86-0.53,1.29-0.79C512.83,514.97,512.4,515.24,511.97,515.5z"/>
<polygon class="st1" points="411.89,515.41 412.08,515.27 411.93,515.47 "/>
<path class="st1" d="M351.65,618.57c0.21,0.2,0.44,0.38,0.61,0.61c0.04,0.06-0.12,0.26-0.19,0.4
	C351.92,619.24,351.79,618.9,351.65,618.57z"/>
<path class="st1" d="M513.23,514.74c0.05-0.63,0.4-0.99,1.03-1.07C513.92,514.03,513.58,514.38,513.23,514.74z"/>
<polygon class="st1" points="410.84,514.4 411.05,514.25 410.9,514.45 "/>
<path class="st1" d="M514.21,513.72c0.34-0.36,0.68-0.73,1.03-1.09C514.9,513,514.55,513.36,514.21,513.72z"/>
<polygon class="st1" points="409.71,513.29 410.08,513.2 409.95,513.55 "/>
<path class="st1" d="M515.17,512.7c0.36-0.36,0.71-0.71,1.07-1.07C515.88,511.99,515.53,512.34,515.17,512.7z"/>
<path class="st1" d="M408.61,512.16c0.57-0.21,0.76-0.07,0.47,0.51C408.81,512.6,408.65,512.43,408.61,512.16z"/>
<path class="st1" d="M516.17,511.7c0.35-0.37,0.69-0.73,1.04-1.1C516.87,510.97,516.52,511.33,516.17,511.7z"/>
<path class="st1" d="M517.12,510.69c0.39-0.4,0.77-0.79,1.16-1.19C517.89,509.9,517.51,510.29,517.12,510.69z"/>
<polygon class="st1" points="572.85,618.41 573.05,618.25 572.89,618.46 "/>
<path class="st1" d="M567.27,507.74c0.26-0.43,0.51-0.86,0.77-1.29C567.78,506.88,567.52,507.31,567.27,507.74z"/>
<path class="st1" d="M402.66,505.48c0.36,0.4,0.71,0.79,1.07,1.19C403.38,506.27,403.02,505.88,402.66,505.48z"/>
<path class="st1" d="M394.67,497.24c0.48-0.24,0.67-0.2,0.32,0.34C394.98,497.58,394.67,497.24,394.67,497.24z"/>
<path class="st1" d="M393.54,496.06c0.6-0.15,0.84,0.03,0.58,0.65C393.82,496.59,393.63,496.37,393.54,496.06z"/>
<path class="st1" d="M372.5,472.85c0.65-0.02,0.94,0.24,0.68,0.9C372.96,473.45,372.73,473.15,372.5,472.85z"/>
<path class="st1" d="M365.64,636.47c0.38,0.38,0.76,0.76,1.13,1.15C366.39,637.23,366.02,636.85,365.64,636.47z"/>
<path class="st1" d="M436.14,434.07c0.2,0.55,0.1,0.76-0.49,0.45C435.71,434.26,435.88,434.11,436.14,434.07z"/>
<path class="st1" d="M437.15,433.06c0.21,0.62,0,0.8-0.6,0.58C436.64,433.34,436.84,433.15,437.15,433.06z"/>
<path class="st1" d="M437.93,432.25c0.07,0.09,0.15,0.19,0.22,0.28c-0.19,0.03-0.39,0.06-0.58,0.09
	C437.63,432.44,437.75,432.32,437.93,432.25z"/>
<path class="st1" d="M442.84,368.21c-0.33,0.38-0.67,0.76-1,1.15C442.17,368.98,442.5,368.59,442.84,368.21z"/>
<path class="st1" d="M517.21,367.28c-0.33-0.43-0.65-0.86-0.98-1.29C516.56,366.43,516.88,366.85,517.21,367.28z"/>
<path class="st1" d="M508.16,356.3c-0.34-0.41-0.69-0.81-1.03-1.22C507.47,355.49,507.81,355.9,508.16,356.3z"/>
<path class="st1" d="M455.24,353.03c0.16,0.64-0.12,0.95-0.74,1.02C454.75,353.71,455,353.37,455.24,353.03z"/>
<path class="st1" d="M505.28,352.72c-0.56,0.14-0.82,0.03-0.51-0.59C505.05,352.23,505.22,352.42,505.28,352.72z"/>
<path class="st1" d="M456.09,352.12c0.27,0.65-0.01,0.78-0.59,0.63C455.58,352.43,455.78,352.22,456.09,352.12z"/>
<path class="st1" d="M366.67,637.52c0.38,0.39,0.76,0.77,1.14,1.16C367.43,638.29,367.05,637.9,366.67,637.52z"/>
<polygon class="st1" points="504.06,351.44 503.75,351.56 503.91,351.28 "/>
<path class="st1" d="M577.57,623.61c0.62,0.16,0.89,0.54,0.76,1.18C578.07,624.4,577.82,624,577.57,623.61z"/>
<path class="st1" d="M576.64,622.52c0.33,0.39,0.67,0.77,1,1.16C577.31,623.3,576.98,622.91,576.64,622.52z"/>
<path class="st1" d="M588.68,643.66c-0.21-0.52-0.14-0.73,0.43-0.39C589.04,643.49,588.89,643.62,588.68,643.66z"/>
<polygon class="st1" points="373.8,644.35 374.15,644.23 374.05,644.61 "/>
<path class="st1" d="M571.54,617.09c0.49-0.16,0.77-0.13,0.4,0.46C571.71,617.48,571.58,617.32,571.54,617.09z"/>
<path class="st1" d="M583.94,647.45c0.39-0.34,0.77-0.68,1.16-1.03C584.71,646.77,584.33,647.11,583.94,647.45z"/>
<path class="st1" d="M570.48,615.76c0.63,0.05,0.91,0.35,0.72,0.99C570.97,616.43,570.72,616.09,570.48,615.76z"/>
<path class="st1" d="M379.64,647.88c-0.01,0.43-0.02,0.85-0.02,1.28c-0.29-0.21-0.58-0.42-0.87-0.63
	C379.04,648.32,379.34,648.1,379.64,647.88z"/>
<path class="st1" d="M574.71,620.46c0.33,0.38,0.67,0.77,1,1.15C575.38,621.23,575.05,620.85,574.71,620.46z"/>
<path class="st1" d="M569.45,614.51c0.36,0.43,0.73,0.86,1.09,1.29C570.18,615.37,569.81,614.94,569.45,614.51z"/>
<path class="st1" d="M440.25,610.12c-0.4-0.39-0.8-0.77-1.21-1.16C439.44,609.35,439.85,609.73,440.25,610.12z"/>
<path class="st1" d="M400.51,654.94c0.52-0.07,0.86-0.01,0.48,0.62C400.71,655.44,400.55,655.24,400.51,654.94z"/>
<path class="st1" d="M443.1,655.57c0.23-0.4,0.45-0.8,0.68-1.2C443.95,655,443.67,655.37,443.1,655.57z"/>
</svg>
